<?xml version="1.0" encoding="utf-8"?>
<!-- Generator: Adobe Illustrator 26.1.0, SVG Export Plug-In . SVG Version: 6.00 Build 0)  -->
<svg version="1.1" xmlns="http://www.w3.org/2000/svg" xmlns:xlink="http://www.w3.org/1999/xlink" x="0px" y="0px"
	 viewBox="0 0 850 703" enable-background="new 0 0 850 703" xml:space="preserve">
<g id="Background">
</g>
<g id="Layer_1">
	<path d="M0,0v705h850V0H0z M754.5,36c22.92,0,41.5,18.58,41.5,41.5c0,22.92-18.58,41.5-41.5,41.5S713,100.42,713,77.5
		C713,54.58,731.58,36,754.5,36z M797,297.5c0,22.92-18.58,41.5-41.5,41.5S714,320.42,714,297.5c0-22.92,18.58-41.5,41.5-41.5
		S797,274.58,797,297.5z M644.5,36c22.92,0,41.5,18.58,41.5,41.5c0,22.92-18.58,41.5-41.5,41.5S603,100.42,603,77.5
		C603,54.58,621.58,36,644.5,36z M687,297.5c0,22.92-18.58,41.5-41.5,41.5S604,320.42,604,297.5c0-22.92,18.58-41.5,41.5-41.5
		S687,274.58,687,297.5z M534.5,36c22.92,0,41.5,18.58,41.5,41.5c0,22.92-18.58,41.5-41.5,41.5S493,100.42,493,77.5
		C493,54.58,511.58,36,534.5,36z M577,297.5c0,22.92-18.58,41.5-41.5,41.5S494,320.42,494,297.5c0-22.92,18.58-41.5,41.5-41.5
		S577,274.58,577,297.5z M424.5,36c22.92,0,41.5,18.58,41.5,41.5c0,22.92-18.58,41.5-41.5,41.5S383,100.42,383,77.5
		C383,54.58,401.58,36,424.5,36z M467,297.5c0,22.92-18.58,41.5-41.5,41.5S384,320.42,384,297.5c0-22.92,18.58-41.5,41.5-41.5
		S467,274.58,467,297.5z M313.5,36c22.92,0,41.5,18.58,41.5,41.5c0,22.92-18.58,41.5-41.5,41.5S272,100.42,272,77.5
		C272,54.58,290.58,36,313.5,36z M356,297.5c0,22.92-18.58,41.5-41.5,41.5S273,320.42,273,297.5c0-22.92,18.58-41.5,41.5-41.5
		S356,274.58,356,297.5z M203.5,36c22.92,0,41.5,18.58,41.5,41.5c0,22.92-18.58,41.5-41.5,41.5S162,100.42,162,77.5
		C162,54.58,180.58,36,203.5,36z M246,297.5c0,22.92-18.58,41.5-41.5,41.5S163,320.42,163,297.5c0-22.92,18.58-41.5,41.5-41.5
		S246,274.58,246,297.5z M93.5,36c22.92,0,41.5,18.58,41.5,41.5c0,22.92-18.58,41.5-41.5,41.5S52,100.42,52,77.5
		C52,54.58,70.58,36,93.5,36z M93.5,146c22.92,0,41.5,18.58,41.5,41.5c0,22.92-18.58,41.5-41.5,41.5S52,210.42,52,187.5
		C52,164.58,70.58,146,93.5,146z M93.5,256c22.92,0,41.5,18.58,41.5,41.5c0,22.92-18.58,41.5-41.5,41.5S52,320.42,52,297.5
		C52,274.58,70.58,256,93.5,256z M93.5,476c22.92,0,41.5,18.58,41.5,41.5c0,22.92-18.58,41.5-41.5,41.5S52,540.42,52,517.5
		C52,494.58,70.58,476,93.5,476z M94.5,669C71.58,669,53,650.42,53,627.5c0-22.92,18.58-41.5,41.5-41.5s41.5,18.58,41.5,41.5
		C136,650.42,117.42,669,94.5,669z M94.5,449C71.58,449,53,430.42,53,407.5c0-22.92,18.58-41.5,41.5-41.5s41.5,18.58,41.5,41.5
		C136,430.42,117.42,449,94.5,449z M203.5,146c22.92,0,41.5,18.58,41.5,41.5c0,22.92-18.58,41.5-41.5,41.5S162,210.42,162,187.5
		C162,164.58,180.58,146,203.5,146z M204.5,476c22.92,0,41.5,18.58,41.5,41.5c0,22.92-18.58,41.5-41.5,41.5S163,540.42,163,517.5
		C163,494.58,181.58,476,204.5,476z M205.5,669c-22.92,0-41.5-18.58-41.5-41.5c0-22.92,18.58-41.5,41.5-41.5s41.5,18.58,41.5,41.5
		C247,650.42,228.42,669,205.5,669z M205.5,449c-22.92,0-41.5-18.58-41.5-41.5c0-22.92,18.58-41.5,41.5-41.5s41.5,18.58,41.5,41.5
		C247,430.42,228.42,449,205.5,449z M313.5,146c22.92,0,41.5,18.58,41.5,41.5c0,22.92-18.58,41.5-41.5,41.5S272,210.42,272,187.5
		C272,164.58,290.58,146,313.5,146z M314.5,476c22.92,0,41.5,18.58,41.5,41.5c0,22.92-18.58,41.5-41.5,41.5S273,540.42,273,517.5
		C273,494.58,291.58,476,314.5,476z M315.5,669c-22.92,0-41.5-18.58-41.5-41.5c0-22.92,18.58-41.5,41.5-41.5s41.5,18.58,41.5,41.5
		C357,650.42,338.42,669,315.5,669z M315.5,449c-22.92,0-41.5-18.58-41.5-41.5c0-22.92,18.58-41.5,41.5-41.5s41.5,18.58,41.5,41.5
		C357,430.42,338.42,449,315.5,449z M424.5,146c22.92,0,41.5,18.58,41.5,41.5c0,22.92-18.58,41.5-41.5,41.5S383,210.42,383,187.5
		C383,164.58,401.58,146,424.5,146z M425.5,476c22.92,0,41.5,18.58,41.5,41.5c0,22.92-18.58,41.5-41.5,41.5S384,540.42,384,517.5
		C384,494.58,402.58,476,425.5,476z M426.5,669c-22.92,0-41.5-18.58-41.5-41.5c0-22.92,18.58-41.5,41.5-41.5s41.5,18.58,41.5,41.5
		C468,650.42,449.42,669,426.5,669z M426.5,449c-22.92,0-41.5-18.58-41.5-41.5c0-22.92,18.58-41.5,41.5-41.5s41.5,18.58,41.5,41.5
		C468,430.42,449.42,449,426.5,449z M534.5,146c22.92,0,41.5,18.58,41.5,41.5c0,22.92-18.58,41.5-41.5,41.5S493,210.42,493,187.5
		C493,164.58,511.58,146,534.5,146z M535.5,476c22.92,0,41.5,18.58,41.5,41.5c0,22.92-18.58,41.5-41.5,41.5S494,540.42,494,517.5
		C494,494.58,512.58,476,535.5,476z M536.5,669c-22.92,0-41.5-18.58-41.5-41.5c0-22.92,18.58-41.5,41.5-41.5s41.5,18.58,41.5,41.5
		C578,650.42,559.42,669,536.5,669z M536.5,449c-22.92,0-41.5-18.58-41.5-41.5c0-22.92,18.58-41.5,41.5-41.5s41.5,18.58,41.5,41.5
		C578,430.42,559.42,449,536.5,449z M644.5,146c22.92,0,41.5,18.58,41.5,41.5c0,22.92-18.58,41.5-41.5,41.5S603,210.42,603,187.5
		C603,164.58,621.58,146,644.5,146z M645.5,476c22.92,0,41.5,18.58,41.5,41.5c0,22.92-18.58,41.5-41.5,41.5S604,540.42,604,517.5
		C604,494.58,622.58,476,645.5,476z M646.5,669c-22.92,0-41.5-18.58-41.5-41.5c0-22.92,18.58-41.5,41.5-41.5s41.5,18.58,41.5,41.5
		C688,650.42,669.42,669,646.5,669z M646.5,449c-22.92,0-41.5-18.58-41.5-41.5c0-22.92,18.58-41.5,41.5-41.5s41.5,18.58,41.5,41.5
		C688,430.42,669.42,449,646.5,449z M754.5,146c22.92,0,41.5,18.58,41.5,41.5c0,22.92-18.58,41.5-41.5,41.5S713,210.42,713,187.5
		C713,164.58,731.58,146,754.5,146z M755.5,476c22.92,0,41.5,18.58,41.5,41.5c0,22.92-18.58,41.5-41.5,41.5S714,540.42,714,517.5
		C714,494.58,732.58,476,755.5,476z M756.5,669c-22.92,0-41.5-18.58-41.5-41.5c0-22.92,18.58-41.5,41.5-41.5s41.5,18.58,41.5,41.5
		C798,650.42,779.42,669,756.5,669z M756.5,449c-22.92,0-41.5-18.58-41.5-41.5c0-22.92,18.58-41.5,41.5-41.5s41.5,18.58,41.5,41.5
		C798,430.42,779.42,449,756.5,449z"/>
</g>
</svg>
